<?xml version="1.0" standalone="no"?><!DOCTYPE svg PUBLIC "-//W3C//DTD SVG 1.1//EN" "http://www.w3.org/Graphics/SVG/1.1/DTD/svg11.dtd"><svg t="1548311735099" class="icon" style="" viewBox="0 0 1024 1024" version="1.1" xmlns="http://www.w3.org/2000/svg" p-id="5821" xmlns:xlink="http://www.w3.org/1999/xlink" width="48" height="48"><defs><style type="text/css"></style></defs><path d="M507.89376 515.87584m-486.43072 0a486.43072 486.43072 0 1 0 972.86144 0 486.43072 486.43072 0 1 0-972.86144 0Z" fill="#8D3F07" p-id="5822"></path><path d="M507.89376 148.61312s-136.34048 15.4112-213.38624 151.5264-97.59232 246.5536-84.75136 333.87008c43.65824 241.41312 298.1376 249.11872 298.1376 249.11872V148.61312z" fill="#97CF43" p-id="5823"></path><path d="M507.89376 148.61312s136.34048 15.4112 213.38624 151.5264 97.59232 246.5536 84.75136 333.87008c-43.65824 241.41312-298.1376 249.11872-298.1376 249.11872V148.61312z" fill="#30C03F" p-id="5824"></path><path d="M507.89376 456.53504c-86.01088 0-155.73504 69.72416-155.73504 155.73504s69.72416 155.73504 155.73504 155.73504V456.53504z" fill="#F4F995" p-id="5825"></path><path d="M507.89376 456.53504c86.01088 0 155.73504 69.72416 155.73504 155.73504s-69.72416 155.73504-155.73504 155.73504V456.53504z" fill="#EAEA86" p-id="5826"></path><path d="M507.89376 515.18976c-53.61664 0-97.08032 43.46368-97.08032 97.08032 0 53.61664 43.46368 97.08032 97.08032 97.08032v-194.16064z" fill="#664823" p-id="5827"></path><path d="M507.89376 515.18976c53.61664 0 97.08032 43.46368 97.08032 97.08032 0 53.61664-43.46368 97.08032-97.08032 97.08032v-194.16064z" fill="#563818" p-id="5828"></path></svg>