<?xml version="1.0" standalone="no"?><!DOCTYPE svg PUBLIC "-//W3C//DTD SVG 1.1//EN" "http://www.w3.org/Graphics/SVG/1.1/DTD/svg11.dtd"><svg t="1548311711774" class="icon" style="" viewBox="0 0 1024 1024" version="1.1" xmlns="http://www.w3.org/2000/svg" p-id="5049" xmlns:xlink="http://www.w3.org/1999/xlink" width="48" height="48"><defs><style type="text/css"></style></defs><path d="M514.19648 514.31424m-494.11072 0a494.11072 494.11072 0 1 0 988.22144 0 494.11072 494.11072 0 1 0-988.22144 0Z" fill="#8D3F07" p-id="5050"></path><path d="M514.19648 514.31424m-431.81568 0a431.81568 431.81568 0 1 0 863.63136 0 431.81568 431.81568 0 1 0-863.63136 0Z" fill="#D4AC6E" p-id="5051"></path><path d="M515.27168 82.55488c237.98272 0.5888 430.74048 193.6384 430.74048 431.75936s-192.75776 431.17056-430.74048 431.75936V82.55488z" fill="#F4C692" p-id="5052"></path><path d="M610.83136 227.33312m-32.8704 0a32.8704 32.8704 0 1 0 65.7408 0 32.8704 32.8704 0 1 0-65.7408 0Z" fill="#967951" p-id="5053"></path><path d="M610.83136 801.29536m-32.8704 0a32.8704 32.8704 0 1 0 65.7408 0 32.8704 32.8704 0 1 0-65.7408 0Z" fill="#967951" p-id="5054"></path><path d="M745.07776 331.60192m-32.8704 0a32.8704 32.8704 0 1 0 65.7408 0 32.8704 32.8704 0 1 0-65.7408 0Z" fill="#967951" p-id="5055"></path><path d="M745.07776 686.30528m-32.8704 0a32.8704 32.8704 0 1 0 65.7408 0 32.8704 32.8704 0 1 0-65.7408 0Z" fill="#967951" p-id="5056"></path><path d="M799.42144 501.23264m-32.8704 0a32.8704 32.8704 0 1 0 65.7408 0 32.8704 32.8704 0 1 0-65.7408 0Z" fill="#967951" p-id="5057"></path><path d="M418.64192 227.33312m-32.8704 0a32.8704 32.8704 0 1 0 65.7408 0 32.8704 32.8704 0 1 0-65.7408 0Z" fill="#967951" p-id="5058"></path><path d="M418.64192 801.29536m-32.8704 0a32.8704 32.8704 0 1 0 65.7408 0 32.8704 32.8704 0 1 0-65.7408 0Z" fill="#967951" p-id="5059"></path><path d="M284.3904 331.60192m-32.8704 0a32.8704 32.8704 0 1 0 65.7408 0 32.8704 32.8704 0 1 0-65.7408 0Z" fill="#967951" p-id="5060"></path><path d="M284.3904 686.30528m-32.8704 0a32.8704 32.8704 0 1 0 65.7408 0 32.8704 32.8704 0 1 0-65.7408 0Z" fill="#967951" p-id="5061"></path><path d="M230.05184 501.23264m-32.8704 0a32.8704 32.8704 0 1 0 65.7408 0 32.8704 32.8704 0 1 0-65.7408 0Z" fill="#967951" p-id="5062"></path></svg>