<?xml version="1.0" standalone="no"?><!DOCTYPE svg PUBLIC "-//W3C//DTD SVG 1.1//EN" "http://www.w3.org/Graphics/SVG/1.1/DTD/svg11.dtd"><svg t="1548311753359" class="icon" style="" viewBox="0 0 1024 1024" version="1.1" xmlns="http://www.w3.org/2000/svg" p-id="6460" xmlns:xlink="http://www.w3.org/1999/xlink" width="48" height="48"><defs><style type="text/css"></style></defs><path d="M511.85664 150.01088c238.49472 0 431.83104 193.33632 431.83104 431.83104 0 238.49472-193.33632 431.82592-431.83104 431.82592V150.01088z" fill="#ED0000" p-id="6461"></path><path d="M511.85664 150.01088c-238.49472 0-431.83104 193.33632-431.83104 431.83104 0 238.49472 193.33632 431.82592 431.83104 431.82592V150.01088z" fill="#EB4E41" p-id="6462"></path><path d="M483.08224 180.77696c-22.95808-49.54624 21.6064-118.9888 99.54304-155.1104 77.93664-36.11648 159.73376-25.23136 182.69184 24.31488L483.08224 180.77696z" fill="#30C03F" p-id="6463"></path><path d="M483.08224 180.77696c22.95808 49.54624 104.7552 60.43136 182.69184 24.31488 77.93664-36.11648 122.50624-105.56416 99.54304-155.1104L483.08224 180.77696z" fill="#97CF43" p-id="6464"></path><path d="M337.45408 351.32928m-28.01152 0a28.01152 28.01152 0 1 0 56.02304 0 28.01152 28.01152 0 1 0-56.02304 0Z" fill="#770000" p-id="6465"></path><path d="M511.85664 351.32928m-28.01152 0a28.01152 28.01152 0 1 0 56.02304 0 28.01152 28.01152 0 1 0-56.02304 0Z" fill="#770000" p-id="6466"></path><path d="M686.26432 351.32928m-28.01152 0a28.01152 28.01152 0 1 0 56.02304 0 28.01152 28.01152 0 1 0-56.02304 0Z" fill="#770000" p-id="6467"></path><path d="M236.20096 466.58048m-28.01152 0a28.01152 28.01152 0 1 0 56.02304 0 28.01152 28.01152 0 1 0-56.02304 0Z" fill="#770000" p-id="6468"></path><path d="M419.97312 466.58048m-28.01152 0a28.01152 28.01152 0 1 0 56.02304 0 28.01152 28.01152 0 1 0-56.02304 0Z" fill="#770000" p-id="6469"></path><path d="M603.74528 466.58048m-28.01152 0a28.01152 28.01152 0 1 0 56.02304 0 28.01152 28.01152 0 1 0-56.02304 0Z" fill="#770000" p-id="6470"></path><path d="M787.51744 466.58048m-28.01152 0a28.01152 28.01152 0 1 0 56.02304 0 28.01152 28.01152 0 1 0-56.02304 0Z" fill="#770000" p-id="6471"></path><path d="M337.45408 581.8368m-28.01152 0a28.01152 28.01152 0 1 0 56.02304 0 28.01152 28.01152 0 1 0-56.02304 0Z" fill="#770000" p-id="6472"></path><path d="M511.85664 581.8368m-28.01152 0a28.01152 28.01152 0 1 0 56.02304 0 28.01152 28.01152 0 1 0-56.02304 0Z" fill="#770000" p-id="6473"></path><path d="M686.26432 581.8368m-28.01152 0a28.01152 28.01152 0 1 0 56.02304 0 28.01152 28.01152 0 1 0-56.02304 0Z" fill="#770000" p-id="6474"></path><path d="M337.45408 812.34944m-28.01152 0a28.01152 28.01152 0 1 0 56.02304 0 28.01152 28.01152 0 1 0-56.02304 0Z" fill="#770000" p-id="6475"></path><path d="M511.85664 812.34944m-28.01152 0a28.01152 28.01152 0 1 0 56.02304 0 28.01152 28.01152 0 1 0-56.02304 0Z" fill="#770000" p-id="6476"></path><path d="M686.26432 812.34944m-28.01152 0a28.01152 28.01152 0 1 0 56.02304 0 28.01152 28.01152 0 1 0-56.02304 0Z" fill="#770000" p-id="6477"></path><path d="M236.20096 697.09312m-28.01152 0a28.01152 28.01152 0 1 0 56.02304 0 28.01152 28.01152 0 1 0-56.02304 0Z" fill="#770000" p-id="6478"></path><path d="M419.97312 697.09312m-28.01152 0a28.01152 28.01152 0 1 0 56.02304 0 28.01152 28.01152 0 1 0-56.02304 0Z" fill="#770000" p-id="6479"></path><path d="M603.74528 697.09312m-28.01152 0a28.01152 28.01152 0 1 0 56.02304 0 28.01152 28.01152 0 1 0-56.02304 0Z" fill="#770000" p-id="6480"></path><path d="M787.51744 697.09312m-28.01152 0a28.01152 28.01152 0 1 0 56.02304 0 28.01152 28.01152 0 1 0-56.02304 0Z" fill="#770000" p-id="6481"></path></svg>