<?xml version="1.0" standalone="no"?><!DOCTYPE svg PUBLIC "-//W3C//DTD SVG 1.1//EN" "http://www.w3.org/Graphics/SVG/1.1/DTD/svg11.dtd"><svg t="1548311703352" class="icon" style="" viewBox="0 0 1024 1024" version="1.1" xmlns="http://www.w3.org/2000/svg" p-id="4928" xmlns:xlink="http://www.w3.org/1999/xlink" width="48" height="48"><defs><style type="text/css"></style></defs><path d="M512.50176 14.52032c273.87904 0 495.90272 222.02368 495.90272 495.90272s-222.02368 495.90272-495.90272 495.90272V14.52032z" fill="#ED0000" p-id="4929"></path><path d="M512.50176 14.52032C238.62272 14.52032 16.59904 236.544 16.59904 510.42304s222.02368 495.90272 495.90272 495.90272V14.52032z" fill="#EB4E41" p-id="4930"></path><path d="M513.75104 510.41792m-75.7504 0a75.7504 75.7504 0 1 0 151.5008 0 75.7504 75.7504 0 1 0-151.5008 0Z" fill="#30C03F" p-id="4931"></path><path d="M709.43744 479.0528l-37.70368-37.76512 0.03072-45.04064a43.44832 43.44832 0 0 0-43.49952-43.49952l-44.90752 0.03072-38.36416-38.4256a44.24192 44.24192 0 0 0-62.63296 0l-38.4768 38.53824-44.20608 0.03072c-24.0384 0.02048-43.55072 19.5328-43.5712 43.5712l-0.03072 44.34432-38.15424 38.21568a44.40064 44.40064 0 0 0 0 62.73536l38.0416 38.11328-0.03072 45.184a43.44832 43.44832 0 0 0 43.49952 43.49952l45.05088-0.03072 37.87776 37.9392a44.24192 44.24192 0 0 0 62.63296 0l37.9904-38.05184 45.04064-0.03072a43.6224 43.6224 0 0 0 43.5712-43.5712l0.03072-45.184 37.81632-37.86752c17.28512-17.32096 17.28512-45.4144-0.00512-62.73536z m-195.58912 148.69504c-64.70144 0-117.15584-52.4544-117.15584-117.15584 0-64.70144 52.4544-117.15584 117.15584-117.15584s117.16096 52.4544 117.16096 117.15584c-0.00512 64.70144-52.45952 117.15584-117.16096 117.15584z" fill="#97CF43" p-id="4932"></path></svg>